<svg width="101.000000" height="16.526855" viewBox="0 0 101 16.5269" fill="none" xmlns="http://www.w3.org/2000/svg" xmlns:xlink="http://www.w3.org/1999/xlink">
	<desc>
			Created with Pixso.
	</desc>
	<defs/>
	<path id="image 86 (Traced)" d="M60.1831 0.61792L58.711 1.2356L58.711 2.62939L58.711 4.02295L57.5837 4.02295L56.4563 4.02295L56.4863 5.35156L56.5162 6.67993L57.6136 6.70972L58.711 6.7395L58.7119 9.5752C58.7127 12.8027 58.7909 13.4714 59.2871 14.4973C59.6382 15.2234 60.7429 16.5269 61.007 16.5269C61.0795 16.5269 61.4718 16.1196 61.8788 15.6223C63.0392 14.2034 62.9771 14.3845 62.476 13.8865C61.7247 13.1394 61.7087 13.052 61.7087 9.70508L61.7087 6.73218L62.7793 6.73218L63.8499 6.73218L63.8499 5.37769L63.8499 4.02295L62.7816 4.02295L61.7132 4.02295L61.6842 2.01147L61.6552 0L60.1831 0.61792ZM6.14417 1.72656C3.29327 2.1167 0.919067 4.15552 0.185425 6.84375C-0.0386963 7.66479 -0.0645752 9.37134 0.134766 10.1707C0.21344 10.4858 0.472229 11.1414 0.710022 11.6272C1.06885 12.3608 1.30774 12.6709 2.11761 13.4548C3.62354 14.9124 5.01831 15.48 7.10089 15.4832C8.69342 15.4858 10.0341 15.0659 11.2974 14.1697C11.5704 13.9761 11.823 13.8176 11.859 13.8176C11.8951 13.8176 12.4185 14.1709 13.0223 14.6028L14.1202 15.3882L14.1485 11.9382C14.164 10.0408 14.164 6.97119 14.1485 5.11694L14.1202 1.74536L12.9739 2.57983L11.8275 3.41406L11.3226 3.03882C9.93939 2.01099 7.87964 1.48901 6.14417 1.72656ZM15.7797 8.60107L15.7797 15.4849L17.1714 15.4849L18.5632 15.4849L18.5632 11.1987C18.5632 8.21509 18.6014 6.78833 18.6891 6.50366C18.8538 5.96851 19.5668 5.18896 20.1115 4.948C21.111 4.50635 22.6449 4.81641 23.3212 5.59717C23.9195 6.2876 23.9163 6.2583 23.9163 11.053L23.9163 15.4849L25.3616 15.4849L26.8069 15.4849L26.8047 11.343C26.8036 9.06494 26.7545 6.8728 26.6956 6.47168C26.4512 4.80786 25.2567 3.23779 23.6841 2.51294C21.9052 1.69263 19.7361 1.84058 18.1711 2.88843C17.859 3.09741 17.6522 3.17407 17.5677 3.1123C17.4969 3.0603 17.0657 2.72534 16.6094 2.36768L15.7797 1.71729L15.7797 8.60107ZM33.6066 2.00293C32.3977 2.28735 31.447 2.83594 30.3819 3.86377C29.6174 4.60132 29.3228 4.97339 29.0179 5.58594C28.483 6.66138 28.2763 7.53223 28.2763 8.71191C28.2763 10.5984 28.869 12.032 30.2246 13.425C31.1808 14.4075 32.0547 14.9585 33.2305 15.3206C35.8089 16.1143 38.5327 15.4465 40.449 13.5515C40.9677 13.0386 41.7546 11.9285 41.8265 11.6084C41.8389 11.5537 41.5117 11.3218 41.0995 11.0928C40.6873 10.864 40.1497 10.5632 39.9047 10.4248L39.4592 10.1729L39.1243 10.7505C38.6932 11.4939 37.9899 12.1458 37.2164 12.5188C36.4235 12.9011 34.9879 12.998 34.049 12.7324C33.7166 12.6384 33.4447 12.5239 33.4447 12.478C33.4447 12.4104 40.3896 6.3877 41.339 5.63232C41.6064 5.41943 41.607 5.41553 41.42 5.05908C41.0934 4.43628 39.5703 3.06909 38.7228 2.63794C37.2292 1.87793 35.2053 1.62695 33.6066 2.00293ZM93.0775 8.76392L93.0775 15.6931L94.5764 15.6931L96.0752 15.6931L96.0752 11.2852L96.0752 6.8772L96.3573 6.32617C96.8862 5.29321 98.0756 4.78271 99.2037 5.10449C99.5103 5.19214 99.7693 5.25415 99.7794 5.24243C99.8665 5.14258 101 2.85742 101 2.78198C101 2.72778 100.723 2.57715 100.384 2.44751C99.882 2.25464 99.5524 2.21021 98.5911 2.20557C97.2634 2.19873 96.721 2.33521 95.7019 2.93237L95.0869 3.29297L94.1477 2.56396C93.631 2.16284 93.1789 1.83472 93.1429 1.83472C93.1069 1.83472 93.0775 4.95288 93.0775 8.76392ZM42.4377 1.99438C42.4377 2.0249 43.2086 3.3584 44.1508 4.95752C45.0929 6.55688 45.8637 7.88623 45.8637 7.91211C45.8637 7.95752 41.8853 14.7646 41.4517 15.4614L41.2393 15.8027L42.9283 15.7739L44.6174 15.7454L45.9936 13.4009C46.7505 12.1113 47.4099 10.9912 47.459 10.9116C47.5214 10.8105 47.9909 11.5244 49.0179 13.2822L50.4875 15.7974L52.1432 15.7974C53.0538 15.7974 53.7792 15.7622 53.7549 15.7192C53.7308 15.6763 52.7042 13.9094 51.4736 11.7927C50.243 9.67603 49.245 7.91504 49.2559 7.87939C49.2668 7.84375 50.0014 6.56738 50.8883 5.04248C51.7752 3.51782 52.5307 2.19458 52.5672 2.10205C52.627 1.95044 52.4671 1.93652 50.9884 1.96216L49.3432 1.99121L48.4769 3.47681C48.0004 4.29395 47.5902 4.98242 47.5651 5.00684C47.5401 5.03101 47.1108 4.35132 46.6113 3.49585L45.7031 1.94067L44.0704 1.9397C43.1725 1.93945 42.4377 1.96387 42.4377 1.99438ZM70.6965 2.19458C69.3675 2.31567 69.343 2.32251 68.4637 2.8313C66.7331 3.83252 65.5629 4.98291 65.5629 5.68286C65.5629 5.85889 65.5235 6.00269 65.4754 6.00269C65.3327 6.00269 65.0276 7.07764 65.0276 7.58008C65.0276 7.83569 64.9753 8.09595 64.9116 8.15796C64.7247 8.33984 64.6687 9.45776 64.8075 10.2346C65.1412 12.103 66.1074 13.5259 67.8029 14.646C68.3378 14.9993 68.6109 15.1094 69.0321 15.1418C69.3298 15.1648 69.6557 15.2559 69.7562 15.3442C69.8567 15.4329 69.9841 15.478 70.0392 15.4448C70.0945 15.4116 70.2734 15.5051 70.437 15.6528L70.7344 15.9211L72.5759 15.8696C73.5887 15.8416 74.5088 15.7725 74.6205 15.7163C74.7322 15.6602 75.1282 15.4812 75.5005 15.3184C75.8727 15.1555 76.3864 14.8335 76.6421 14.6025C76.8976 14.3713 77.2795 14.0513 77.4908 13.8914C77.7021 13.7312 77.8749 13.5393 77.8749 13.4646C77.8749 13.3899 77.975 13.2407 78.0972 13.1331C78.3689 12.8938 78.8762 11.8774 78.7911 11.7434C78.7571 11.6899 78.8033 11.5742 78.8937 11.4863C79.1313 11.2551 79.3167 10.1985 79.1533 10.0071C79.0371 9.87085 79.0865 9.81396 79.2935 9.8457C79.538 9.8833 79.2684 7.6355 78.9575 7.04468C78.8519 6.84424 78.7337 6.5542 78.6948 6.40039C78.6557 6.24658 78.5275 6.09106 78.41 6.05469C78.2646 6.00977 78.196 5.89722 78.196 5.70288C78.196 5.54541 78.1003 5.32593 77.9832 5.21484C77.4178 4.67822 77.3474 4.6311 77.2217 4.70679C77.1298 4.76196 77.1095 4.73486 77.1555 4.61816C77.1991 4.50732 77.1107 4.3584 76.8978 4.18408C76.7196 4.03809 76.5379 3.9187 76.4941 3.9187C76.4504 3.9187 76.2527 3.77808 76.0549 3.6062C75.857 3.43433 75.6432 3.2937 75.5797 3.2937C75.5162 3.2937 75.2336 3.17407 74.9516 3.02783C74.4752 2.78101 74.4165 2.77319 74.1237 2.91528C73.9446 3.0022 73.7823 3.02686 73.7477 2.97266C73.7143 2.91992 73.7379 2.87671 73.8002 2.87671C73.8625 2.87671 73.9135 2.84155 73.9134 2.79858C73.9131 2.6875 73.2557 2.65649 73.1183 2.76123C73.0552 2.80908 72.57 2.87573 72.04 2.90894C71.1724 2.96338 71.1097 2.95557 71.4097 2.82983C71.866 2.63892 72.4572 1.99683 72.1204 2.05786C72.0762 2.06592 71.4354 2.12744 70.6965 2.19458ZM80.5535 6.60181C80.5547 8.87988 80.6039 11.072 80.6627 11.4731C81.2043 15.1599 85.6318 17.168 88.9418 15.228C89.2875 15.0254 89.618 14.8596 89.6762 14.8596C89.7343 14.8596 90.15 15.155 90.5999 15.5164C91.0499 15.8774 91.4783 16.2085 91.5519 16.2517C91.6584 16.3147 91.6857 14.9163 91.6857 9.39526L91.6857 2.45996L90.1869 2.45996L88.688 2.45996L88.687 6.8103C88.6859 11.1555 88.6857 11.1611 88.4346 11.6858C87.9988 12.5964 87.2056 13.0881 86.1721 13.0881C85.4341 13.0881 84.9033 12.8801 84.3661 12.3799C83.541 11.6116 83.5541 11.7017 83.5515 6.8103L83.5491 2.45996L82.0502 2.45996L80.5514 2.45996L80.5535 6.60181ZM70.916 3.021C70.916 3.04297 70.797 3.08301 70.6515 3.11011C70.5061 3.13721 70.4125 3.11914 70.4437 3.07031C70.4985 2.98389 70.916 2.94043 70.916 3.021ZM70.1665 3.18945C70.1665 3.24683 70.1183 3.2937 70.0594 3.2937C70.0005 3.2937 69.9524 3.24683 69.9524 3.18945C69.9524 3.13208 70.0005 3.08521 70.0594 3.08521C70.1183 3.08521 70.1665 3.13208 70.1665 3.18945ZM68.7212 3.94019C68.5446 4.06299 68.123 4.43481 67.7844 4.7666C67.4458 5.09839 67.1688 5.32959 67.1688 5.28052C67.1688 5.2312 67.2884 5.08057 67.4346 4.94556C67.5807 4.81079 67.7012 4.64673 67.7023 4.58105C67.7054 4.37671 68.2936 3.83667 68.5673 3.78638C69.0339 3.70117 69.0468 3.71387 68.7212 3.94019ZM8.89691 4.79248C9.72174 5.16113 10.6413 6.06812 11.0452 6.91138C11.2986 7.44019 11.3336 7.64062 11.3322 8.55566C11.3309 9.39771 11.2833 9.71313 11.0836 10.2004C10.7382 11.0437 9.85052 11.9502 8.94659 12.3831C8.27264 12.7058 8.17407 12.7234 7.05615 12.7212C5.97388 12.719 5.82355 12.6938 5.23419 12.415C1.74261 10.7634 2.07129 5.74219 5.74658 4.58618C6.02856 4.49756 6.57898 4.45386 7.21478 4.46973C8.07269 4.49121 8.33606 4.54175 8.89691 4.79248ZM37.058 4.85449C37.3671 4.98438 37.6167 5.11987 37.6127 5.15601C37.6086 5.19189 36.2263 6.4082 34.541 7.85864L31.4768 10.4958L31.3174 10.2031C31.1046 9.81201 31.0294 8.30347 31.1884 7.61206C31.4666 6.40161 32.667 5.15405 33.9503 4.74097C34.8018 4.4668 36.2632 4.52026 37.058 4.85449ZM73.5895 5.02173C76.2804 5.79956 77.6128 8.79199 76.374 11.2759C75.5192 12.9895 73.3928 14.0703 71.5367 13.7344C67.909 13.0776 66.4121 8.95288 68.8455 6.3186C70.009 5.05908 71.9156 4.53784 73.5895 5.02173ZM67.4409 12.7827C67.5394 12.9377 67.4251 13.022 67.2202 12.9456C67.1255 12.9102 67.0781 12.834 67.1149 12.7764C67.2015 12.6396 67.352 12.6426 67.4409 12.7827Z" fill="#001E41" fill-opacity="1.000000" fill-rule="evenodd"/>
</svg>
