<svg width="81.000000" height="21.387695" viewBox="0 0 81 21.3877" fill="none" xmlns="http://www.w3.org/2000/svg" xmlns:xlink="http://www.w3.org/1999/xlink">
	<desc>
			Created with Pixso.
	</desc>
	<defs/>
	<path id="image 87 (Traced)" d="M0.0342407 8.51782L0 17.0354L8.91489 17.0354L17.8297 17.0354L17.8297 8.51782L17.8297 0L8.9491 0L0.0683289 0L0.0342407 8.51782ZM13.81 8.51782L13.81 13.1807L8.9473 13.1807L4.08463 13.1807L4.08463 8.51782L4.08463 3.85474L8.9473 3.85474L13.81 3.85474L13.81 8.51782ZM52.225 5.03809C49.8366 5.53564 47.7809 7.35352 47.1866 9.4939C46.9782 10.2446 46.9566 11.7683 47.1433 12.5452C47.5964 14.4299 49.3122 16.2085 51.3822 16.939C52.4702 17.323 55.0377 17.3188 56.137 16.9316C57.1868 16.562 57.9903 16.0447 58.8368 15.1936C60.0404 13.9836 60.4873 12.863 60.4899 11.0488C60.492 9.65381 60.1555 8.59668 59.3938 7.60449C57.7486 5.46118 54.9696 4.46631 52.225 5.03809ZM29.0081 5.15698C28.08 5.35767 27.455 5.68921 26.977 6.23364L26.6474 6.60938L26.6474 5.91602L26.6474 5.22266L24.832 5.22266L23.0166 5.22266L23.0166 13.3052L23.0166 21.3877L24.832 21.3877L26.6474 21.3877L26.6496 18.4343L26.6518 15.4812L26.92 15.8826C27.3149 16.4741 28.5699 17.0273 29.7274 17.1204C32.2916 17.3264 34.5204 16.1167 35.6429 13.9092C37.0815 11.0808 36.1909 7.68799 33.5531 5.94775C32.3534 5.15625 30.5016 4.83398 29.0081 5.15698ZM43.916 5.15601C43.1857 5.37769 42.4095 5.89941 42.0832 6.3877L41.8233 6.77686L41.8211 5.99976L41.8189 5.22266L40.0035 5.22266L38.1881 5.22266L38.1881 11.0669L38.1881 16.9111L40.0035 16.9111L41.8189 16.9111L41.8189 13.8252C41.8189 10.262 41.9109 9.75513 42.6899 9.02979C43.3267 8.43677 44.1605 8.18237 45.3477 8.21924L46.2925 8.24854L46.2925 6.64233L46.2925 5.03613L45.3848 5.01074C44.8856 4.99683 44.2247 5.06226 43.916 5.15601ZM67.9971 5.14551C67.257 5.39917 66.6287 5.8186 66.3387 6.25269L66.0717 6.65259L66.0695 5.9375L66.0674 5.22266L64.252 5.22266L62.4366 5.22266L62.4366 11.0669L62.4366 16.9111L64.252 16.9111L66.0674 16.9111L66.0702 13.3362C66.0733 9.41089 66.1179 9.1499 66.9036 8.45557C67.2013 8.19238 67.3809 8.14478 68.0741 8.14478C68.7095 8.14478 68.958 8.20044 69.1837 8.39331C69.7886 8.91064 69.8278 9.20117 69.8278 13.1768L69.8278 16.9111L71.6359 16.9111L73.4442 16.9111L73.4837 13.2739C73.5208 9.86914 73.5406 9.60522 73.794 9.1394C74.1627 8.46191 74.7751 8.08252 75.5001 8.08252C76.2513 8.08252 76.774 8.39062 77.0921 9.02051C77.3302 9.49194 77.3487 9.79614 77.3487 13.22L77.3487 16.9111L79.1743 16.9111L81 16.9111L80.9563 12.5901L80.9125 8.26904L80.577 7.50366C79.7715 5.66577 78.3411 4.86499 76.1236 5.01025C74.6687 5.10571 73.9236 5.38647 73.1456 6.13257C72.7047 6.55542 72.4806 6.69702 72.4408 6.57812C72.2924 6.13501 71.2941 5.36792 70.6137 5.17407C69.7758 4.93555 68.646 4.9231 67.9971 5.14551ZM55.076 8.2876C56.2427 8.85522 56.8957 9.8479 56.9044 11.0664C56.9232 13.7175 53.785 15.1306 51.7304 13.3965C50.9496 12.7373 50.643 12.0957 50.6393 11.113C50.6352 9.99512 51.0598 9.17651 51.9633 8.55933C52.8064 7.98364 54.2014 7.86182 55.076 8.2876ZM30.8302 8.38867C32.2441 8.95532 32.9724 10.3733 32.6046 11.8435C32.4779 12.3499 32.299 12.627 31.772 13.1323C31.2079 13.6733 30.9833 13.7993 30.3653 13.9224C27.9406 14.405 25.908 12.4653 26.5656 10.2964C26.8045 9.50781 27.4595 8.79053 28.2578 8.44263C28.9055 8.16064 30.1935 8.13354 30.8302 8.38867Z" fill="#001E41" fill-opacity="1.000000" fill-rule="evenodd"/>
</svg>
